<?xml version="1.0" encoding="UTF-8"?>
<!-- Generator: Adobe Illustrator 25.0.1, SVG Export Plug-In . SVG Version: 6.00 Build 0)  -->
<svg xmlns="http://www.w3.org/2000/svg" xmlns:xlink="http://www.w3.org/1999/xlink" version="1.1" id="Layer_1" x="0px" y="0px" viewBox="0 0 200 50.9" style="enable-background:new 0 0 200 50.9;" xml:space="preserve">
<style type="text/css">
	.st0{fill:#FFFFFF;}
</style>
<g>
	<path class="st0" d="M6.1,19.5L0,5h4.2l2.9,8.1c0,0.1,0.1,0.3,0.2,0.6C7.3,14,7.4,14.5,7.6,15c0.1-0.4,0.2-0.8,0.3-1.2   C8,13.5,8,13.2,8.1,13.1L11,5h4.2L9.1,19.5H6.1z"></path>
	<path class="st0" d="M17.4,19.5V5h4v14.5H17.4z M22.3,0l-3.1,3.5h-1.5L19.5,0H22.3z"></path>
	<path class="st0" d="M36.1,5.6v4.3c-0.5-0.6-1.1-1-1.6-1.3c-0.5-0.3-1.1-0.4-1.7-0.4c-1.1,0-2.1,0.4-2.8,1.2   c-0.7,0.8-1.1,1.8-1.1,3c0,1.2,0.4,2.1,1.1,2.9c0.7,0.8,1.6,1.1,2.7,1.1c0.6,0,1.2-0.1,1.7-0.4s1.1-0.7,1.6-1.3v4.3   c-0.6,0.3-1.2,0.5-1.9,0.7c-0.6,0.2-1.2,0.2-1.9,0.2c-0.8,0-1.5-0.1-2.2-0.3s-1.3-0.5-1.8-0.9c-1.1-0.7-1.9-1.6-2.5-2.7   c-0.6-1.1-0.8-2.3-0.8-3.7c0-1.1,0.2-2.1,0.5-3c0.4-0.9,0.9-1.7,1.6-2.5c0.7-0.7,1.5-1.2,2.3-1.6c0.9-0.3,1.8-0.5,2.9-0.5   c0.6,0,1.3,0.1,1.9,0.2C34.9,5,35.5,5.3,36.1,5.6z"></path>
	<path class="st0" d="M41.4,19.5V8.4h-3.2V5h10.4v3.4h-3.2v11.1H41.4z"></path>
	<path class="st0" d="M66.1,12.3c0,1-0.2,2-0.6,2.9c-0.4,0.9-0.9,1.7-1.7,2.4c-0.7,0.7-1.6,1.3-2.5,1.6c-0.9,0.4-1.9,0.6-3,0.6   c-1,0-2-0.2-3-0.6c-0.9-0.4-1.8-0.9-2.5-1.6c-0.7-0.7-1.3-1.5-1.7-2.5s-0.6-1.9-0.6-2.9c0-1,0.2-2,0.6-2.9c0.4-0.9,1-1.7,1.7-2.4   c0.7-0.7,1.6-1.3,2.5-1.6c0.9-0.4,1.9-0.6,3-0.6c1,0,2,0.2,3,0.6c1,0.4,1.8,0.9,2.5,1.6c0.7,0.7,1.3,1.5,1.7,2.4   C65.9,10.3,66.1,11.2,66.1,12.3z M58.3,16.5c1.1,0,2-0.4,2.7-1.2c0.7-0.8,1.1-1.8,1.1-3c0-1.2-0.4-2.2-1.1-3   C60.3,8.4,59.4,8,58.3,8c-1.1,0-2,0.4-2.7,1.2c-0.7,0.8-1.1,1.8-1.1,3c0,1.2,0.4,2.3,1.1,3.1C56.3,16.1,57.2,16.5,58.3,16.5z"></path>
	<path class="st0" d="M69.5,19.5V5h4.1c1.6,0,2.7,0.1,3.4,0.2c0.6,0.1,1.2,0.4,1.6,0.7c0.5,0.4,0.9,0.9,1.2,1.5   c0.3,0.6,0.4,1.3,0.4,2c0,1.1-0.3,2-0.8,2.7c-0.5,0.7-1.4,1.2-2.4,1.4l3.9,5.8h-4.5l-3.3-5.7v5.7H69.5z M73.2,11.8H74   c0.8,0,1.5-0.1,1.9-0.4c0.4-0.3,0.6-0.7,0.6-1.4c0-0.7-0.2-1.2-0.5-1.5C75.5,8.2,74.9,8,74,8h-0.8V11.8z"></path>
	<path class="st0" d="M107.5,19.5h-3.7l-0.9-6.3c-0.1-0.4-0.1-0.9-0.2-1.5c0-0.5-0.1-1.1-0.1-1.8c-0.1,0.6-0.3,1.4-0.5,2.3   c-0.1,0.2-0.1,0.3-0.1,0.4l-2,6.8h-2.6l-2-6.8c0-0.1-0.1-0.2-0.1-0.4c-0.3-0.9-0.5-1.7-0.5-2.3c0,0.5-0.1,1.1-0.1,1.6   s-0.1,1.1-0.2,1.6l-0.9,6.3h-3.7L92.1,5H96l2.2,7.5c0,0.1,0,0.1,0.1,0.3c0.2,0.7,0.3,1.2,0.4,1.7c0-0.3,0.1-0.5,0.1-0.9   c0.1-0.3,0.2-0.7,0.3-1.1l2.2-7.4h3.9L107.5,19.5z"></path>
	<path class="st0" d="M125.5,12.3c0,1-0.2,2-0.6,2.9c-0.4,0.9-0.9,1.7-1.7,2.4c-0.7,0.7-1.6,1.3-2.5,1.6c-0.9,0.4-1.9,0.6-3,0.6   c-1,0-2-0.2-3-0.6c-0.9-0.4-1.8-0.9-2.5-1.6c-0.7-0.7-1.3-1.5-1.7-2.5c-0.4-0.9-0.6-1.9-0.6-2.9c0-1,0.2-2,0.6-2.9   c0.4-0.9,1-1.7,1.7-2.4c0.7-0.7,1.5-1.3,2.5-1.6c0.9-0.4,1.9-0.6,3-0.6c1,0,2,0.2,3,0.6c1,0.4,1.8,0.9,2.5,1.6   c0.7,0.7,1.3,1.5,1.7,2.4S125.5,11.2,125.5,12.3z M117.7,16.5c1.1,0,2-0.4,2.7-1.2c0.7-0.8,1.1-1.8,1.1-3c0-1.2-0.4-2.2-1.1-3   c-0.7-0.8-1.6-1.2-2.7-1.2c-1.1,0-2,0.4-2.7,1.2c-0.7,0.8-1.1,1.8-1.1,3c0,1.2,0.4,2.3,1.1,3.1C115.7,16.1,116.6,16.5,117.7,16.5z"></path>
	<path class="st0" d="M129,19.5V5h4.1c1.6,0,2.7,0.1,3.4,0.2c0.6,0.1,1.2,0.4,1.6,0.7c0.5,0.4,0.9,0.9,1.2,1.5   c0.3,0.6,0.4,1.3,0.4,2c0,1.1-0.3,2-0.8,2.7c-0.5,0.7-1.4,1.2-2.4,1.4l3.9,5.8H136l-3.3-5.7v5.7H129z M132.7,11.8h0.7   c0.8,0,1.5-0.1,1.9-0.4c0.4-0.3,0.6-0.7,0.6-1.4c0-0.7-0.2-1.2-0.5-1.5c-0.4-0.3-1-0.5-1.8-0.5h-0.8V11.8z"></path>
	<path class="st0" d="M141.3,19.5l5-14.5h4.9l5,14.5h-3.9l-0.7-2.6h-5.6l-0.8,2.6H141.3z M146.8,14.1h3.9l-1.5-4.8   c0-0.1-0.1-0.4-0.2-0.7c-0.1-0.3-0.2-0.7-0.3-1.2c-0.1,0.4-0.2,0.7-0.3,1s-0.2,0.6-0.3,0.9L146.8,14.1z"></path>
	<path class="st0" d="M158.6,19.5V5h3.8l5.5,7.4c0.1,0.2,0.3,0.5,0.5,0.9c0.2,0.5,0.5,1,0.8,1.6c-0.1-0.6-0.1-1.1-0.2-1.6   c0-0.5-0.1-0.9-0.1-1.2V5h3.8v14.5h-3.8l-5.5-7.5c-0.1-0.2-0.3-0.5-0.5-0.9c-0.2-0.5-0.5-1-0.8-1.6c0.1,0.6,0.1,1.1,0.2,1.6   c0,0.5,0.1,0.9,0.1,1.2v7.1H158.6z"></path>
	<path class="st0" d="M178.9,19.5V8.4h-3.2V5h10.4v3.4h-3.2v11.1H178.9z"></path>
	<path class="st0" d="M189.1,19.5V5h8.9v3.2h-5v2.5h4.7v3.1h-4.7v2.4h5v3.2H189.1z"></path>
</g>
<g>
	<path class="st0" d="M33.6,39v6.5h-0.9V31.8h2.4c0.6,0,1.2,0.1,1.7,0.2s0.9,0.3,1.3,0.6c0.8,0.7,1.2,1.6,1.2,2.8   c0,0.5-0.1,1-0.3,1.5c-0.2,0.5-0.5,0.9-0.8,1.2c-0.7,0.6-1.7,0.9-3,0.9H33.6z M33.6,38.2h1.6c0.5,0,1-0.1,1.3-0.2   c0.4-0.1,0.7-0.3,1.1-0.6c0.6-0.5,0.9-1.2,0.9-2c0-0.4-0.1-0.9-0.3-1.3c-0.2-0.4-0.4-0.7-0.8-1c-0.3-0.2-0.6-0.4-1-0.4   s-0.8-0.1-1.4-0.1h-1.4V38.2z"></path>
	<path class="st0" d="M43.1,37.6h8.3v-5.8h0.9v13.6h-0.9v-7h-8.3v7h-0.9V31.8h0.9V37.6z"></path>
	<path class="st0" d="M62.3,31.7c1.3,0,2.4,0.3,3.5,0.9c1.1,0.6,2,1.5,2.6,2.6c0.6,1.1,1,2.2,1,3.5c0,1.3-0.3,2.4-1,3.5   c-0.6,1.1-1.5,1.9-2.6,2.6c-1.1,0.6-2.3,0.9-3.5,0.9s-2.4-0.3-3.5-0.9s-2-1.5-2.6-2.6c-0.6-1.1-1-2.2-1-3.5c0-0.9,0.2-1.8,0.6-2.7   c0.4-0.9,0.9-1.6,1.5-2.3s1.4-1.2,2.3-1.5S61.4,31.7,62.3,31.7z M62.3,32.5c-1.1,0-2.1,0.3-3.1,0.8c-1,0.6-1.7,1.3-2.3,2.3   s-0.8,2-0.8,3.1c0,1.1,0.3,2.1,0.8,3.1s1.3,1.7,2.3,2.3c1,0.6,2,0.8,3.1,0.8c1.1,0,2.1-0.3,3.1-0.8c1-0.6,1.7-1.3,2.3-2.3   c0.6-0.9,0.8-2,0.8-3.1c0-0.8-0.2-1.6-0.5-2.4c-0.3-0.8-0.8-1.4-1.3-2c-0.6-0.6-1.2-1-2-1.3C63.9,32.6,63.1,32.5,62.3,32.5z"></path>
	<path class="st0" d="M75.5,32.7v12.8h-0.9V32.7h-3.5v-0.8H79v0.8H75.5z"></path>
	<path class="st0" d="M87.7,31.7c1.3,0,2.4,0.3,3.5,0.9c1.1,0.6,2,1.5,2.6,2.6c0.6,1.1,1,2.2,1,3.5c0,1.3-0.3,2.4-1,3.5   c-0.6,1.1-1.5,1.9-2.6,2.6c-1.1,0.6-2.3,0.9-3.5,0.9s-2.4-0.3-3.5-0.9s-2-1.5-2.6-2.6c-0.6-1.1-1-2.2-1-3.5c0-0.9,0.2-1.8,0.6-2.7   c0.4-0.9,0.9-1.6,1.5-2.3s1.4-1.2,2.3-1.5S86.8,31.7,87.7,31.7z M87.7,32.5c-1.1,0-2.1,0.3-3.1,0.8c-1,0.6-1.7,1.3-2.3,2.3   s-0.8,2-0.8,3.1c0,1.1,0.3,2.1,0.8,3.1s1.3,1.7,2.3,2.3c1,0.6,2,0.8,3.1,0.8c1.1,0,2.1-0.3,3.1-0.8c1-0.6,1.7-1.3,2.3-2.3   c0.6-0.9,0.8-2,0.8-3.1c0-0.8-0.2-1.6-0.5-2.4c-0.3-0.8-0.8-1.4-1.3-2c-0.6-0.6-1.2-1-2-1.3C89.3,32.6,88.5,32.5,87.7,32.5z"></path>
	<path class="st0" d="M104.9,38.9h5.8c0,0.6,0,1.2-0.1,1.7s-0.2,1-0.4,1.5s-0.5,0.9-0.9,1.3c-0.6,0.7-1.4,1.2-2.3,1.6   c-0.9,0.4-1.9,0.6-2.8,0.6c-0.9,0-1.8-0.2-2.7-0.5c-0.8-0.4-1.6-0.9-2.3-1.5c-0.7-0.6-1.2-1.4-1.5-2.2S97,39.6,97,38.7   c0-1.3,0.3-2.5,1-3.5c0.6-1.1,1.5-1.9,2.6-2.6c1.1-0.6,2.3-0.9,3.6-0.9c0.8,0,1.6,0.1,2.3,0.4s1.4,0.6,2,1.1c0.6,0.5,1.1,1,1.6,1.7   l-0.7,0.6c-0.3-0.4-0.6-0.9-1-1.2c-0.4-0.4-0.8-0.7-1.2-0.9s-0.9-0.4-1.4-0.6s-1-0.2-1.6-0.2c-1.1,0-2.1,0.3-3.1,0.9   s-1.7,1.3-2.3,2.3c-0.6,1-0.8,2-0.8,3c0,1.1,0.3,2.1,0.8,3.1c0.6,1,1.3,1.7,2.3,2.3c1,0.6,2,0.8,3.1,0.8c1.4,0,2.8-0.5,4-1.5   c0.4-0.3,0.7-0.7,0.9-1c0.2-0.4,0.4-0.8,0.5-1.2c0.1-0.4,0.2-0.9,0.2-1.4h-4.9V38.9z"></path>
	<path class="st0" d="M115.9,39l4.5,6.5h-1l-4.4-6.5h-0.4v6.5h-0.9V31.8h1.7c0.7,0,1.3,0,1.8,0.1c0.5,0.1,0.9,0.3,1.3,0.6   c0.9,0.6,1.4,1.6,1.4,2.9c0,0.8-0.2,1.4-0.5,2c-0.3,0.5-0.8,0.9-1.4,1.2C117.3,38.9,116.7,39,115.9,39z M114.5,38.2h1.1   c0.5,0,1,0,1.4-0.1s0.7-0.2,1-0.5c0.6-0.5,1-1.2,1-2.2c0-0.3-0.1-0.7-0.2-1s-0.3-0.6-0.5-0.9c-0.2-0.3-0.5-0.5-0.8-0.6   c-0.5-0.2-1.3-0.3-2.4-0.3h-0.6V38.2z"></path>
	<path class="st0" d="M130.7,41h-6l-1.8,4.5H122l5.7-14.1l5.7,14.1h-0.9L130.7,41z M130.4,40.2l-2.7-6.6l-2.7,6.6H130.4z"></path>
	<path class="st0" d="M136.7,39v6.5h-0.9V31.8h2.4c0.6,0,1.2,0.1,1.7,0.2s0.9,0.3,1.3,0.6c0.8,0.7,1.2,1.6,1.2,2.8   c0,0.5-0.1,1-0.3,1.5c-0.2,0.5-0.5,0.9-0.8,1.2c-0.7,0.6-1.7,0.9-3,0.9H136.7z M136.7,38.2h1.6c0.5,0,1-0.1,1.3-0.2   c0.4-0.1,0.7-0.3,1.1-0.6c0.6-0.5,0.9-1.2,0.9-2c0-0.4-0.1-0.9-0.3-1.3s-0.4-0.7-0.8-1c-0.3-0.2-0.6-0.4-1-0.4s-0.8-0.1-1.4-0.1   h-1.4V38.2z"></path>
	<path class="st0" d="M146.2,37.6h8.3v-5.8h0.9v13.6h-0.9v-7h-8.3v7h-0.9V31.8h0.9V37.6z"></path>
	<path class="st0" d="M162.3,39.7l-4.5-7.8h1l4,6.9l4-6.9h1l-4.5,7.8v5.8h-0.9V39.7z"></path>
</g>
</svg>
